<svg id="Layer_1" data-name="Layer 1" xmlns="http://www.w3.org/2000/svg" xmlns:xlink="http://www.w3.org/1999/xlink" viewBox="0 0 279.22 34.23"><defs><style>.cls-1{fill:url(#linear-gradient);}</style><linearGradient id="linear-gradient" x1="139.61" y1="34.23" x2="139.61" gradientUnits="userSpaceOnUse"><stop offset="0" stop-color="#fff"/><stop offset="0.03" stop-color="#34eae2"/><stop offset="1" stop-color="#489fff"/></linearGradient></defs><title>logo</title><path class="cls-1" d="M132.39,0.45h6.44a0.68,0.68,0,0,1,.72.81V27.49a0.7,0.7,0,0,0,.11.45,0.47,0.47,0,0,0,.38.14h14.35a0.66,0.66,0,0,1,.81.67V33a0.79,0.79,0,0,1-.23.58,0.85,0.85,0,0,1-.63.23H132.66a1.06,1.06,0,0,1-.77-0.23,1,1,0,0,1-.23-0.72V1.3A0.7,0.7,0,0,1,132.39.45ZM217.75,0.9a1.06,1.06,0,0,1-.14.45L207,18.67a1.81,1.81,0,0,0-.32.79q0,0.38,0,1.6v11.7a1,1,0,0,1-1.26,1.08H199.8a1.06,1.06,0,0,1-.77-0.23,1,1,0,0,1-.23-0.72V20.79A2.42,2.42,0,0,0,198.7,20a6.46,6.46,0,0,0-.43-0.83L187.6,1.48a1.41,1.41,0,0,1-.18-0.5,0.46,0.46,0,0,1,.23-0.38,1.08,1.08,0,0,1,.63-0.16H195a1.65,1.65,0,0,1,.81.16,1.41,1.41,0,0,1,.49.65L203,13a0.79,0.79,0,0,0,.45.5,0.53,0.53,0,0,0,.4-0.41l6.57-11.79a1.78,1.78,0,0,1,.52-0.65,1.51,1.51,0,0,1,.79-0.16h5.4Q217.75,0.45,217.75.9ZM223,0.45H245.7a0.64,0.64,0,0,1,.68.77l0,4a0.84,0.84,0,0,1-.95.95H231a0.7,0.7,0,0,0-.85.72v6.53a0.64,0.64,0,0,0,.68.76h9.54a0.66,0.66,0,0,1,.76.72v4.32a0.6,0.6,0,0,1-.72.63H230.8a0.52,0.52,0,0,0-.63.54v7.06a0.7,0.7,0,0,0,.11.45,0.47,0.47,0,0,0,.38.14h15.39a0.66,0.66,0,0,1,.81.67V33a0.76,0.76,0,0,1-.9.81H223.29a1.06,1.06,0,0,1-.77-0.23,1,1,0,0,1-.23-0.72V1.3A0.7,0.7,0,0,1,223,.45ZM53.32,19.17q-0.18-.54.18-0.68a9.38,9.38,0,0,0,4.41-3.26,9,9,0,0,0,1.75-5.6,7.86,7.86,0,0,0-3.33-6.79Q53,0.45,46.94.45h-14a0.7,0.7,0,0,0-.72.85V32.94a0.78,0.78,0,0,0,.95.9h5.71a1.41,1.41,0,0,0,.92-0.25A1,1,0,0,0,40,32.76V20.29a0.46,0.46,0,0,1,0-.13V14a1.57,1.57,0,0,1,0-.26V6.44a0.72,0.72,0,0,1,.18-0.56,1.05,1.05,0,0,1,.67-0.16h5.54a5.61,5.61,0,0,1,3.71,1.15,4.07,4.07,0,0,1,1.37,3.31,3.91,3.91,0,0,1-1.35,3.22,6.13,6.13,0,0,1-4,1.1H43V19.8h1.84a2,2,0,0,1,.85.14,0.86,0.86,0,0,1,.41.49L51,33a1,1,0,0,0,1,.81h6.61a0.74,0.74,0,0,0,.54-0.23A0.79,0.79,0,0,0,59.35,33a1.44,1.44,0,0,0-.09-0.4ZM189.9,32.63L178.78,1.44a1.37,1.37,0,0,0-.49-0.72,1.39,1.39,0,0,0-.85-0.27h-6.75a1.15,1.15,0,0,0-.74.2,1.59,1.59,0,0,0-.43.7l-11.2,31.19a1.25,1.25,0,0,0-.09.54,0.64,0.64,0,0,0,.68.77h5.17a1,1,0,0,0,.94-0.58l0.36-1,7.79-23.35a0.42,0.42,0,0,1,.27-0.31,0.39,0.39,0,0,1,.31.27l3.78,10.53a1.39,1.39,0,0,1,0,.4,0.36,0.36,0,0,1-.45.36H172.4l-2,6H179a0.53,0.53,0,0,1,.38.11,1,1,0,0,1,.2.38l2.34,6.57a0.8,0.8,0,0,0,.85.63h6.62a0.54,0.54,0,0,0,.47-0.23A1,1,0,0,0,190,33,1.44,1.44,0,0,0,189.9,32.63ZM92.43,8.08a13.88,13.88,0,0,0-5.35-6A15.37,15.37,0,0,0,79,0a15.57,15.57,0,0,0-8.17,2.09,13.83,13.83,0,0,0-5.38,6,20.86,20.86,0,0,0-1.89,9.2,20.52,20.52,0,0,0,1.87,9.09,13.48,13.48,0,0,0,5.35,5.87,15.29,15.29,0,0,0,6.74,2v-5.6a5.61,5.61,0,0,1-4-2.58q-1.71-2.7-1.71-8.73t1.73-9A5.94,5.94,0,0,1,79,5.49a5.86,5.86,0,0,1,5.38,2.83q1.73,2.84,1.73,9T84.4,26.05a5.53,5.53,0,0,1-3.94,2.57v5.6a15,15,0,0,0,6.66-2,13.64,13.64,0,0,0,5.33-5.92,20.56,20.56,0,0,0,1.87-9.07A20.76,20.76,0,0,0,92.43,8.08ZM272.88,19.17q-0.18-.54.18-0.68a9.38,9.38,0,0,0,4.41-3.26,9,9,0,0,0,1.75-5.6,7.86,7.86,0,0,0-3.33-6.79q-3.33-2.38-9.4-2.39h-14a0.7,0.7,0,0,0-.72.85V32.94a0.78,0.78,0,0,0,.95.9h5.71a1.41,1.41,0,0,0,.92-0.25,1,1,0,0,0,.29-0.83V20.29a0.46,0.46,0,0,1,0-.12V14a1.57,1.57,0,0,1,0-.24V6.44a0.72,0.72,0,0,1,.18-0.56,1.05,1.05,0,0,1,.67-0.16H266a5.61,5.61,0,0,1,3.71,1.15,4.07,4.07,0,0,1,1.37,3.31,3.91,3.91,0,0,1-1.35,3.22,6.13,6.13,0,0,1-4,1.1h-3.19V19.8h1.84a2,2,0,0,1,.85.14,0.86,0.86,0,0,1,.41.49L270.54,33a1,1,0,0,0,1,.81h6.61a0.74,0.74,0,0,0,.54-0.23,0.79,0.79,0,0,0,.23-0.58,1.44,1.44,0,0,0-.09-0.4ZM25.58,5.08A10.34,10.34,0,0,0,20.9,1.6,18.32,18.32,0,0,0,14.22.45H0.72A0.7,0.7,0,0,0,0,1.3V32.94a1,1,0,0,0,.2.67,1,1,0,0,0,.74.23H6.71a1,1,0,0,0,1.17-1V21.55A0.52,0.52,0,0,1,8,21.22V15.14a1.33,1.33,0,0,1-.1-0.56V6.88a0.81,0.81,0,0,1,.2-0.63,1,1,0,0,1,.65-0.18h5a6.3,6.3,0,0,1,4,1.17,4.14,4.14,0,0,1,1.49,3.47,4.43,4.43,0,0,1-1.4,3.46A5.43,5.43,0,0,1,14,15.44H10.93v5.63h4.19A13.75,13.75,0,0,0,24,18.38a9.1,9.1,0,0,0,3.35-7.54A9.41,9.41,0,0,0,25.58,5.08Zm99.49,0A10.34,10.34,0,0,0,120.4,1.6,18.32,18.32,0,0,0,113.71.45h-13.5a0.7,0.7,0,0,0-.72.85V32.94a0.78,0.78,0,0,0,.95.9h5.76a1,1,0,0,0,1.17-1V21.55a0.53,0.53,0,0,1,.09-0.32V15.12a1.38,1.38,0,0,1-.09-0.54V6.88a0.81,0.81,0,0,1,.2-0.63,1,1,0,0,1,.65-0.18h5a6.3,6.3,0,0,1,4,1.17,4.14,4.14,0,0,1,1.49,3.47,4.43,4.43,0,0,1-1.4,3.46,5.43,5.43,0,0,1-3.78,1.26h-3.12v5.63h4.2a13.75,13.75,0,0,0,8.84-2.68,9.1,9.1,0,0,0,3.35-7.54A9.41,9.41,0,0,0,125.08,5.08Z"/></svg>